<svg xmlns="http://www.w3.org/2000/svg" width="20" height="20" viewBox="0 0 20 20" fill="none">
  <path d="M3.00004 0C3.55234 0 4.00006 0.447722 4.00006 1.00001V2.00003H5.00007C5.55236 2.00003 6.00009 2.44775 6.00009 3.00004C6.00009 3.55234 5.55236 4.00006 5.00007 4.00006H4.00006V5.00007C4.00006 5.55236 3.55234 6.00009 3.00004 6.00009C2.44775 6.00009 2.00003 5.55236 2.00003 5.00007V4.00006H1.00001C0.447722 4.00006 0 3.55234 0 3.00004C0 2.44775 0.447722 2.00003 1.00001 2.00003H2.00003V1.00001C2.00003 0.447722 2.44775 0 3.00004 0Z" fill="#6B6255"/>
  <path d="M5.66658 15.0002C5.66658 14.4479 5.21886 14.0002 4.66657 14.0002C4.11428 14.0002 3.66656 14.4479 3.66656 15.0002V16.0002H2.66654C2.11425 16.0002 1.66653 16.448 1.66653 17.0002C1.66653 17.5525 2.11425 18.0003 2.66654 18.0003H3.66656V19.0003C3.66656 19.5526 4.11428 20.0003 4.66657 20.0003C5.21886 20.0003 5.66658 19.5526 5.66658 19.0003V18.0003H6.6666C7.21889 18.0003 7.66661 17.5525 7.66661 17.0002C7.66661 16.448 7.21889 16.0002 6.6666 16.0002H5.66658V15.0002Z" fill="#6B6255"/>
  <path fill-rule="evenodd" clip-rule="evenodd" d="M12.9416 1.68663C12.8063 1.27662 12.4231 0.999752 11.9913 1.00001C11.5596 1.00028 11.1767 1.27761 11.0419 1.68778L9.18136 7.34858L4.64461 9.07386C4.25808 9.22085 4.00189 9.59061 4.00007 10.0041C3.99824 10.4177 4.25115 10.7897 4.63637 10.9401L9.18225 12.7149L11.0516 18.3168C11.1879 18.7252 11.5702 19.0005 12.0008 19.0003C12.4313 19 12.8134 18.7242 12.9492 18.3156L14.8105 12.715L19.3634 10.9403C19.7489 10.79 20.0021 10.4179 20.0003 10.0042C19.9985 9.59041 19.742 9.22052 19.3552 9.07366L14.8099 7.34799L12.9416 1.68663ZM10.9325 8.42605L11.9939 5.19681L13.06 8.4272C13.1544 8.7134 13.3729 8.94173 13.6547 9.0487L16.2152 10.0208L13.6464 11.0221C13.3692 11.1302 13.1545 11.3561 13.0606 11.6385L11.9982 14.8352L10.9311 11.6373C10.8371 11.3556 10.6228 11.1303 10.3462 11.0223L7.78113 10.0208L10.338 9.04851C10.6199 8.9413 10.8383 8.71258 10.9325 8.42605Z" fill="#6B6255"/>
</svg>