<svg xmlns="http://www.w3.org/2000/svg" version="1.1" xmlns:xlink="http://www.w3.org/1999/xlink" width="1000" height="1000"><g clip-path="url(#SvgjsClipPath1028)"><rect width="1000" height="1000" fill="#faf3ea"></rect><g transform="matrix(25,0,0,25,150,187.5)"><svg xmlns="http://www.w3.org/2000/svg" version="1.1" xmlns:xlink="http://www.w3.org/1999/xlink" width="28" height="25"><svg width="28" height="25" viewBox="0 0 28 25" fill="none" xmlns="http://www.w3.org/2000/svg">
<path d="M18.3804 6.99969C18.3804 8.46455 19.5654 9.66307 21.0137 9.66307C22.462 9.66307 23.647 8.46455 23.647 6.99969C23.647 5.53483 22.462 4.33631 21.0137 4.33631C19.5654 4.33631 18.3804 5.53483 18.3804 6.99969ZM17.2744 23.1398V23.1131C17.2744 22.5538 17.5904 22.2076 18.3278 21.9679C19.0651 21.7015 19.2494 21.5151 19.2494 20.5297V15.6557C19.2494 14.6702 18.9861 14.5371 18.2488 14.2973C17.6431 14.1109 17.2744 13.8179 17.2744 13.3652C17.2744 12.9923 17.5114 12.6993 17.8538 12.5662L21.672 11.1812C22.5147 10.8616 23.173 11.2877 23.173 12.0601V20.5297C23.173 21.5151 23.3573 21.7015 24.0947 21.9679C24.832 22.2076 25.148 22.5538 25.148 23.1131V23.1398C25.148 23.6724 24.7267 24.0453 24.0947 24.0453H18.3278C17.6958 24.0453 17.2744 23.6724 17.2744 23.1398ZM7.42592 9.07713C7.42592 5.668 7.89991 4.54938 9.34822 4.54938C11.1125 4.54938 12.1395 6.28058 12.1395 9.23693C12.1395 12.1933 11.1389 13.9777 9.50622 13.9777C7.87358 13.9777 7.42592 12.6727 7.42592 9.07713ZM0.0263672 23.1131V23.1398C0.0263672 23.6724 0.447694 24.0453 1.07968 24.0453H9.71689C10.3489 24.0453 10.7702 23.6724 10.7702 23.1398V23.1131C10.7702 22.6071 10.4805 22.2342 9.74322 22.0744C7.89991 21.6483 7.66292 21.4618 7.66292 20.4231V16.6145C7.66292 16.1351 7.87358 15.8155 8.32124 15.8155C8.7689 15.8155 9.13756 16.0285 9.95388 16.0285C14.2198 16.0285 17.2481 13.1521 17.2481 9.10376C17.2481 5.05542 14.4041 2.44531 10.3489 2.44531C8.13691 2.44531 6.50427 3.27096 4.3713 3.27096H1.07968C0.447694 3.27096 0.0263672 3.64383 0.0263672 4.17651V4.20314C0.0263672 4.76245 0.342362 5.10869 1.07968 5.29513C2.39633 5.61473 2.58066 5.80117 2.58066 6.78662V20.5297C2.58066 21.5151 2.39633 21.7015 1.07968 22.0211C0.342362 22.2076 0.0263672 22.5538 0.0263672 23.1131Z" fill="#0D3C26"></path>
<path d="M24.5681 4.80063H23.691C23.6113 4.80063 23.5714 4.76031 23.5714 4.68543V4.66238C23.5714 4.60479 23.6056 4.56447 23.6683 4.54719L23.7879 4.50687C23.8904 4.47231 23.9245 4.43775 23.9245 4.33983V3.11295C23.9245 3.02654 23.8847 2.98623 23.8163 2.98623H23.8049C23.6512 2.98623 23.5658 3.08991 23.3493 3.41822C23.3095 3.47582 23.2639 3.48159 23.2184 3.45855L23.1956 3.45278C23.1443 3.42975 23.1215 3.39518 23.1443 3.32607L23.338 2.71551C23.355 2.66367 23.3892 2.64062 23.4291 2.64062H23.4405C23.4746 2.64062 23.5088 2.65214 23.543 2.66942C23.5828 2.68671 23.6284 2.70398 23.6967 2.70398H24.5567C24.625 2.70398 24.6763 2.68671 24.7104 2.66942C24.7446 2.65214 24.7788 2.64062 24.8129 2.64062H24.8243C24.8642 2.64062 24.9041 2.66367 24.9211 2.71551L25.1091 3.32607C25.1319 3.39518 25.1091 3.42975 25.0578 3.45278L25.035 3.45855C24.9895 3.48159 24.9439 3.47582 24.9098 3.41822C24.6933 3.07838 24.6022 2.98623 24.4485 2.98623H24.4371C24.3687 2.98623 24.3289 3.02654 24.3289 3.11295V4.33983C24.3289 4.43775 24.363 4.47231 24.4655 4.50687L24.5851 4.54719C24.6478 4.57023 24.682 4.60479 24.682 4.66238V4.68543C24.682 4.76031 24.6421 4.80063 24.5681 4.80063ZM26.0829 4.80063H25.3653C25.2856 4.80063 25.2458 4.76031 25.2458 4.68543V4.66815C25.2458 4.61055 25.2742 4.57599 25.3369 4.55871L25.428 4.52991C25.5305 4.49534 25.5647 4.45503 25.5647 4.35711V3.14751C25.5647 3.04958 25.5305 3.00927 25.428 2.9747L25.3369 2.9459C25.2742 2.92863 25.2458 2.89406 25.2458 2.83646V2.81919C25.2458 2.74431 25.2856 2.70398 25.3653 2.70398H25.838C25.9064 2.70398 25.9519 2.73278 25.9861 2.79038L26.5727 3.75231C26.5954 3.78686 26.6182 3.78686 26.641 3.75231L27.2219 2.79038C27.2561 2.72702 27.3016 2.70398 27.3643 2.70398H27.8142C27.8882 2.70398 27.9281 2.74431 27.9281 2.81919V2.84222C27.9281 2.89983 27.8996 2.93439 27.8312 2.95743L27.7458 2.99198C27.6433 3.03231 27.6091 3.06687 27.6091 3.16479V4.33983C27.6091 4.43775 27.6433 4.47231 27.7458 4.51263L27.8312 4.54719C27.8939 4.57023 27.9281 4.60479 27.9281 4.66238V4.68543C27.9281 4.76031 27.8882 4.80063 27.8142 4.80063H27.0169C26.9371 4.80063 26.8973 4.76031 26.8973 4.68543V4.66238C26.8973 4.60479 26.9314 4.57023 26.9884 4.54719L27.0795 4.51263C27.182 4.47231 27.2162 4.43775 27.2162 4.33983V3.47006C27.2162 3.42975 27.182 3.41822 27.1592 3.45855L26.6467 4.28223C26.6011 4.35711 26.4929 4.35711 26.4474 4.28223L25.9405 3.45855C25.9121 3.41822 25.8779 3.42975 25.8779 3.47006V4.35711C25.8779 4.45503 25.9121 4.49534 26.0146 4.52991L26.1057 4.55871C26.1683 4.57599 26.1968 4.61055 26.1968 4.66815V4.68543C26.1968 4.76031 26.1569 4.80063 26.0829 4.80063Z" fill="#0D3C26"></path>
</svg></svg></g></g><defs><clipPath id="SvgjsClipPath1028"><rect width="1000" height="1000" x="0" y="0" rx="350" ry="350"></rect></clipPath></defs></svg>