<svg xmlns="http://www.w3.org/2000/svg" width="19" height="19" viewBox="0 0 19 19" fill="none">
  <path d="M18 14.879V9.10798C18 8.55215 17.9995 8.27408 17.9304 8.01545C17.8693 7.78624 17.7689 7.56933 17.6329 7.37334C17.4797 7.15215 17.2665 6.96874 16.8391 6.60273L11.7391 2.23381C10.9459 1.55425 10.5492 1.21465 10.1028 1.08541C9.70951 0.971529 9.29027 0.971529 8.89695 1.08541C8.45091 1.21455 8.05484 1.55384 7.26276 2.23237L2.16108 6.60273C1.7338 6.96874 1.52067 7.15215 1.36731 7.37334C1.23141 7.56933 1.13021 7.78624 1.06903 8.01545C1 8.27409 1 8.55215 1 9.10798V14.879C1 15.8484 1 16.3329 1.16175 16.7152C1.37744 17.2249 1.79084 17.6305 2.31153 17.8417C2.70204 18 3.1971 18 4.18722 18C5.17735 18 5.67296 18 6.06347 17.8417C6.58416 17.6305 6.99747 17.225 7.21314 16.7153C7.37489 16.333 7.375 15.8483 7.375 14.8789V13.8388C7.375 12.6897 8.32639 11.7583 9.5 11.7583C10.6736 11.7583 11.625 12.6897 11.625 13.8388V14.8789C11.625 15.8483 11.625 16.333 11.7868 16.7153C12.0024 17.225 12.4159 17.6305 12.9366 17.8417C13.3271 18 13.8221 18 14.8123 18C15.8024 18 16.2979 18 16.6885 17.8417C17.2091 17.6305 17.6225 17.2249 17.8381 16.7152C17.9999 16.3329 18 15.8484 18 14.879Z" stroke="#6B6255" stroke-width="2" stroke-linecap="round" stroke-linejoin="round"/>
</svg>