<svg xmlns="http://www.w3.org/2000/svg" width="18" height="18" viewBox="0 0 18 18" fill="none">
  <path d="M7.48375 2.00533H4.01595C2.99377 2.00533 2.48268 2.00533 2.09226 2.20426C1.74883 2.37925 1.46961 2.65846 1.29464 3.00189C1.0957 3.39231 1.0957 3.9034 1.0957 4.92558V13.6863C1.0957 14.7085 1.0957 15.2196 1.29464 15.61C1.46961 15.9535 1.74883 16.2327 2.09226 16.4076C2.48268 16.6066 2.99377 16.6066 4.01595 16.6066H12.7767C13.7989 16.6066 14.31 16.6066 14.7004 16.4076C15.0438 16.2327 15.3231 15.9535 15.498 15.61C15.697 15.2196 15.697 14.7085 15.697 13.6863V9.76225M7.2672 7.69736L13.3343 1.63028C14.047 0.917511 15.2027 0.917511 15.9154 1.63028C16.6282 2.34305 16.6282 3.49867 15.9154 4.21144L9.65331 10.4735C8.95829 11.1686 8.61078 11.5161 8.21491 11.7925C7.86356 12.0378 7.48457 12.241 7.08587 12.398C6.6366 12.5748 6.15484 12.672 5.19129 12.8665L4.74602 12.9563L4.78932 12.6531C4.94255 11.5806 5.01917 11.0442 5.19344 10.5435C5.34809 10.0992 5.55935 9.67674 5.822 9.28643C6.11799 8.84656 6.50108 8.46346 7.2672 7.69736Z" stroke="#6B6255" stroke-width="2.19019" stroke-linecap="round" stroke-linejoin="round"/>
</svg>