<svg width="28" height="25" viewBox="0 0 28 25" fill="none" xmlns="http://www.w3.org/2000/svg">
<path d="M18.3794 7.00164C18.3794 8.4665 19.5644 9.66502 21.0127 9.66502C22.461 9.66502 23.646 8.4665 23.646 7.00164C23.646 5.53678 22.461 4.33826 21.0127 4.33826C19.5644 4.33826 18.3794 5.53678 18.3794 7.00164ZM17.2735 23.1417V23.1151C17.2735 22.5558 17.5895 22.2095 18.3268 21.9698C19.0641 21.7035 19.2484 21.5171 19.2484 20.5316V15.6576C19.2484 14.6722 18.9851 14.539 18.2478 14.2993C17.6421 14.1129 17.2735 13.8199 17.2735 13.3671C17.2735 12.9942 17.5105 12.7013 17.8528 12.5681L21.6711 11.1831C22.5137 10.8635 23.172 11.2897 23.172 12.0621V20.5316C23.172 21.5171 23.3564 21.7035 24.0937 21.9698C24.831 22.2095 25.147 22.5558 25.147 23.1151V23.1417C25.147 23.6744 24.7257 24.0473 24.0937 24.0473H18.3268C17.6948 24.0473 17.2735 23.6744 17.2735 23.1417ZM7.42494 9.07908C7.42494 5.66995 7.89894 4.55133 9.34725 4.55133C11.1116 4.55133 12.1385 6.28253 12.1385 9.23888C12.1385 12.1952 11.1379 13.9797 9.50525 13.9797C7.8726 13.9797 7.42494 12.6746 7.42494 9.07908ZM0.0253906 23.1151V23.1417C0.0253906 23.6744 0.446718 24.0473 1.07871 24.0473H9.71591C10.3479 24.0473 10.7692 23.6744 10.7692 23.1417V23.1151C10.7692 22.609 10.4796 22.2362 9.74224 22.0764C7.89894 21.6502 7.66194 21.4638 7.66194 20.4251V16.6164C7.66194 16.137 7.8726 15.8174 8.32026 15.8174C8.76792 15.8174 9.13659 16.0305 9.95291 16.0305C14.2188 16.0305 17.2471 13.154 17.2471 9.10571C17.2471 5.05738 14.4032 2.44727 10.3479 2.44727C8.13593 2.44727 6.50329 3.27291 4.37032 3.27291H1.07871C0.446718 3.27291 0.0253906 3.64579 0.0253906 4.17846V4.2051C0.0253906 4.76441 0.341386 5.11064 1.07871 5.29708C2.39535 5.61669 2.57968 5.80312 2.57968 6.78857V20.5316C2.57968 21.5171 2.39535 21.7035 1.07871 22.0231C0.341386 22.2095 0.0253906 22.5558 0.0253906 23.1151Z" fill="#0D3C26"/>
<path d="M24.5673 4.80063H23.6903C23.6106 4.80063 23.5707 4.76031 23.5707 4.68543V4.66238C23.5707 4.60479 23.6049 4.56447 23.6675 4.54719L23.7871 4.50687C23.8896 4.47231 23.9238 4.43775 23.9238 4.33983V3.11295C23.9238 3.02654 23.8839 2.98623 23.8156 2.98623H23.8042C23.6504 2.98623 23.565 3.08991 23.3486 3.41822C23.3087 3.47582 23.2632 3.48159 23.2176 3.45855L23.1948 3.45278C23.1436 3.42975 23.1208 3.39518 23.1436 3.32607L23.3372 2.71551C23.3543 2.66367 23.3885 2.64062 23.4283 2.64062H23.4397C23.4739 2.64062 23.5081 2.65214 23.5422 2.66942C23.5821 2.68671 23.6277 2.70398 23.696 2.70398H24.5559C24.6243 2.70398 24.6755 2.68671 24.7097 2.66942C24.7439 2.65214 24.778 2.64062 24.8122 2.64062H24.8236C24.8635 2.64062 24.9033 2.66367 24.9204 2.71551L25.1083 3.32607C25.1311 3.39518 25.1083 3.42975 25.0571 3.45278L25.0343 3.45855C24.9887 3.48159 24.9432 3.47582 24.909 3.41822C24.6926 3.07838 24.6015 2.98623 24.4477 2.98623H24.4363C24.368 2.98623 24.3281 3.02654 24.3281 3.11295V4.33983C24.3281 4.43775 24.3623 4.47231 24.4648 4.50687L24.5844 4.54719C24.6471 4.57023 24.6812 4.60479 24.6812 4.66238V4.68543C24.6812 4.76031 24.6414 4.80063 24.5673 4.80063ZM26.0822 4.80063H25.3646C25.2849 4.80063 25.245 4.76031 25.245 4.68543V4.66815C25.245 4.61055 25.2735 4.57599 25.3361 4.55871L25.4273 4.52991C25.5298 4.49534 25.5639 4.45503 25.5639 4.35711V3.14751C25.5639 3.04958 25.5298 3.00927 25.4273 2.9747L25.3361 2.9459C25.2735 2.92863 25.245 2.89406 25.245 2.83646V2.81919C25.245 2.74431 25.2849 2.70398 25.3646 2.70398H25.8373C25.9056 2.70398 25.9512 2.73278 25.9854 2.79038L26.5719 3.75231C26.5947 3.78686 26.6175 3.78686 26.6403 3.75231L27.2212 2.79038C27.2553 2.72702 27.3009 2.70398 27.3635 2.70398H27.8134C27.8875 2.70398 27.9273 2.74431 27.9273 2.81919V2.84222C27.9273 2.89983 27.8988 2.93439 27.8305 2.95743L27.7451 2.99198C27.6426 3.03231 27.6084 3.06687 27.6084 3.16479V4.33983C27.6084 4.43775 27.6426 4.47231 27.7451 4.51263L27.8305 4.54719C27.8932 4.57023 27.9273 4.60479 27.9273 4.66238V4.68543C27.9273 4.76031 27.8875 4.80063 27.8134 4.80063H27.0161C26.9364 4.80063 26.8965 4.76031 26.8965 4.68543V4.66238C26.8965 4.60479 26.9307 4.57023 26.9877 4.54719L27.0788 4.51263C27.1813 4.47231 27.2155 4.43775 27.2155 4.33983V3.47006C27.2155 3.42975 27.1813 3.41822 27.1585 3.45855L26.646 4.28223C26.6004 4.35711 26.4922 4.35711 26.4466 4.28223L25.9398 3.45855C25.9113 3.41822 25.8772 3.42975 25.8772 3.47006V4.35711C25.8772 4.45503 25.9113 4.49534 26.0138 4.52991L26.105 4.55871C26.1676 4.57599 26.1961 4.61055 26.1961 4.66815V4.68543C26.1961 4.76031 26.1562 4.80063 26.0822 4.80063Z" fill="#0D3C26"/>
</svg>
