<svg xmlns="http://www.w3.org/2000/svg" width="20" height="20" viewBox="0 0 20 20" fill="none">
  <path fill-rule="evenodd" clip-rule="evenodd" d="M9.57486 6.00009C7.36333 6.00009 5.57622 7.78783 5.57622 10.0001C5.57622 12.2125 7.36333 14.0002 9.57486 14.0002C11.7864 14.0002 13.5735 12.2125 13.5735 10.0001C13.5735 7.78783 11.7864 6.00009 9.57486 6.00009ZM7.57554 10.0001C7.57554 8.89241 8.46752 8.00011 9.57486 8.00011C10.6822 8.00011 11.5742 8.89241 11.5742 10.0001C11.5742 11.1079 10.6822 12.0002 9.57486 12.0002C8.46752 12.0002 7.57554 11.1079 7.57554 10.0001Z" fill="#6B6255"/>
  <path fill-rule="evenodd" clip-rule="evenodd" d="M11.1294 0C11.6303 0 12.0539 0.370827 12.1203 0.867471L12.2342 1.72002L12.4242 3.06004H12.4342C13.024 3.31005 13.5638 3.62005 14.1136 4.03006L15.3832 3.52005L16.1886 3.19474C16.6499 3.00843 17.178 3.18981 17.4276 3.62031L17.8623 4.37006L18.9905 6.3226C19.2383 6.75202 19.1341 7.29822 18.7456 7.6062L18.0722 8.14012L16.9926 9.00013C17.0426 9.36013 17.0626 9.66014 17.0626 9.99014C17.0626 10.2821 17.036 10.5475 16.9995 10.9116C16.9972 10.9341 16.9949 10.9569 16.9926 10.9802L18.0622 11.8202L18.7531 12.356C19.1478 12.6621 19.256 13.2127 19.0067 13.6455L18.5721 14.4002L17.8723 15.6102L17.4376 16.36C17.188 16.7905 16.6599 16.9719 16.1986 16.7855L15.3931 16.4602L14.1336 15.9602C13.5638 16.3802 13.024 16.7002 12.4442 16.9402L12.2442 18.2903L12.1193 19.1449C12.0475 19.6361 11.6264 20.0003 11.1302 20.0003H8.00582C7.50711 20.0003 7.08468 19.6326 7.01576 19.1385L6.89605 18.2803L6.70611 16.9402H6.69612C6.10632 16.6902 5.5665 16.3802 5.01669 15.9702L3.74712 16.4802L2.94165 16.8055C2.48033 16.9919 1.95227 16.8105 1.70267 16.38L1.26797 15.6302L0.568207 14.4202L0.133552 13.6655C-0.115764 13.2327 -0.00748078 12.6821 0.387187 12.376L2.14767 11.0102V10.9402C2.14241 10.8787 2.13714 10.8198 2.13204 10.7627C2.10808 10.4942 2.08769 10.2658 2.08769 10.0101C2.08769 9.70014 2.11768 9.39013 2.15766 9.02013L1.08803 8.18012L0.397183 7.64427C0.00251523 7.33815 -0.105767 6.78762 0.143548 6.35475L0.578203 5.60008L1.27796 4.39006L1.71267 3.64031C1.96227 3.20981 2.49033 3.02843 2.95164 3.21474L3.75712 3.54005L5.01669 4.04006C5.5765 3.62005 6.12631 3.30005 6.69612 3.06004L6.89605 1.71002L7.02096 0.855351C7.09274 0.364158 7.51386 0 8.0101 0H11.1294ZM10.2649 2.00003H8.87537L8.67544 3.35005L8.5155 4.48006L7.45586 4.91007C7.046 5.08007 6.63614 5.32008 6.20628 5.64008L5.30659 6.32009L4.26695 5.90008L2.99738 5.39008L2.29762 6.60009L3.37725 7.44011L4.26695 8.14012L4.12699 9.27013C4.097 9.57014 4.07701 9.80014 4.07701 10.0001C4.07701 10.2001 4.097 10.4301 4.12699 10.7402L4.26695 11.8702L3.37725 12.5702L2.29762 13.4102L2.99738 14.6202L4.26695 14.1102L5.32658 13.6802L6.23627 14.3802C6.63614 14.6802 7.036 14.9102 7.46585 15.0902L8.52549 15.5202L8.87537 18.0003H10.2749L10.4748 16.6502L10.6348 15.5202L11.6944 15.0902C12.1043 14.9202 12.5141 14.6802 12.944 14.3602L13.8437 13.6802L14.8833 14.1002L16.1529 14.6102L16.8527 13.4002L15.773 12.5602L14.8833 11.8602L15.0233 10.7302C15.0533 10.4301 15.0733 10.2101 15.0733 10.0001C15.0733 9.79014 15.0633 9.58014 15.0233 9.27013L14.8833 8.14012L15.773 7.44011L16.8427 6.59009L16.1429 5.38008L14.8733 5.89008L13.8137 6.32009L12.904 5.62008C12.5041 5.32008 12.1043 5.09007 11.6744 4.91007L10.6148 4.48006L10.2649 2.00003Z" fill="#6B6255"/>
</svg>